<mxfile host="app.diagrams.net" modified="2024-05-13T11:57:05.821Z" agent="Mozilla/5.0 (Windows NT 10.0; Win64; x64) AppleWebKit/537.36 (KHTML, like Gecko) Chrome/124.0.0.0 Safari/537.36" version="24.3.1" etag="FYj8rQwzYqjq3sA26vvI" type="github">
  <diagram name="第 1 页" id="PI5dT3Lc4GaeCLgzhAQK">
    <mxGraphModel>
      <root>
        <mxCell id="0" />
        <mxCell id="1" parent="0" />
      </root>
    </mxGraphModel>
  </diagram>
</mxfile>
